<?xml version="1.0" encoding="UTF-8" standalone="no"?>
<!-- Created with Inkscape (http://www.inkscape.org/) -->

<svg
   width="154.09412mm"
   height="40.74699mm"
   viewBox="0 0 154.09412 40.74699"
   version="1.1"
   id="svg1"
   xml:space="preserve"
   xmlns="http://www.w3.org/2000/svg"
   xmlns:svg="http://www.w3.org/2000/svg"><defs
     id="defs1" /><g
     id="layer1"
     transform="translate(-138.03718,-138.62234)"><g
       id="g4"
       transform="translate(6.4620306,8.8694538)"><g
         style="fill:none;stroke:#000000;stroke-width:2;stroke-linecap:round;stroke-linejoin:round"
         id="g1-8-2-1-3"
         transform="matrix(-0.18819552,-0.51806775,0.51806775,-0.18819552,155.91743,171.52458)"><path
           d="m 15.707,21.293 a 1,1 0 0 1 -1.414,0 l -1.586,-1.586 a 1,1 0 0 1 0,-1.414 l 5.586,-5.586 a 1,1 0 0 1 1.414,0 l 1.586,1.586 a 1,1 0 0 1 0,1.414 z"
           id="path1-9-7-3-4" /><path
           d="M 18,13 16.625,6.126 A 1,1 0 0 0 15.879,5.35 L 3.235,2.028 A 1,1 0 0 0 2.028,3.235 L 5.35,15.879 a 1,1 0 0 0 0.776,0.746 L 13,18 M 2.3,2.3 9.586,9.586"
           id="path2-2-6-8-4" /><circle
           cx="11"
           cy="11"
           r="2"
           id="circle2-7-1-7-6" /></g><path
         style="fill:#fdfdfe;fill-opacity:1;stroke:#ffffff;stroke-width:0.206;stroke-linejoin:round"
         d="m 149.04022,147.828 33.15015,-3.85259"
         id="path8-4-4-0" /><path
         style="fill:none;fill-opacity:1;stroke:#000000;stroke-width:1.006;stroke-linecap:round;stroke-linejoin:round;stroke-dasharray:none;stroke-opacity:1"
         d="m 124.27854,35.988618 c 9.37419,-2.543931 18.74839,-5.087865 22.92777,-7.748581 4.17938,-2.660716 3.16399,-5.438106 1.44673,-6.543105 -1.71727,-1.104999 -4.13628,-0.537577 -7.92553,5.178783 -3.78926,5.716359 -8.94849,16.581206 -14.10782,27.446269"
         id="path9-23-2-6"
         transform="matrix(1,0,0,0.77616947,32.969879,115.3238)" /><path
         style="fill:none;fill-opacity:1;stroke:#000000;stroke-width:1.006;stroke-linecap:round;stroke-linejoin:round;stroke-dasharray:none;stroke-opacity:1"
         d="m 119.60934,31.824718 c 9.03418,-0.827452 18.06815,-1.654884 23.02584,-3.621628 4.95769,-1.966744 5.83869,-5.072643 4.69105,-6.668176 -1.14764,-1.595532 -4.32387,-1.680634 -8.11315,4.035731 -3.78928,5.716365 -8.19129,17.233737 -12.59339,28.751339"
         id="path9-2-2-7-6"
         transform="matrix(1,0,0,0.74922541,37.639079,119.41318)" /><path
         style="fill:none;fill-opacity:1;stroke:#000000;stroke-width:0.906;stroke-linecap:round;stroke-linejoin:round;stroke-dasharray:none;stroke-opacity:1"
         d="m 182.67785,132.98929 2.25462,2.52505"
         id="path15-2-7-1" /><path
         style="fill:#000000;fill-opacity:1;stroke:#000000;stroke-width:0.108469;stroke-linecap:round;stroke-linejoin:round;stroke-dasharray:none;stroke-opacity:1"
         d="m 163.31917,142.39138 c 0.11325,-0.0258 1.01128,-0.22507 1.99563,-0.44283 0.98435,-0.21775 2.30818,-0.51676 2.94183,-0.66446 0.63366,-0.1477 1.38993,-0.38071 1.39657,-0.37407 0.0124,0.0124 -0.76592,0.94555 -0.83744,1.02159 -0.0423,0.045 -0.44881,0.0877 -2.4487,0.25737 -1.33917,0.11362 -3.9887,0.37367 -4.04697,0.36971 -0.0226,-0.002 0.88584,-0.14151 0.99908,-0.16731 z"
         id="path23-8-3-8" /><path
         style="fill:#ffffff;fill-opacity:1;stroke:#000000;stroke-width:0.108469;stroke-linecap:round;stroke-linejoin:round;stroke-dasharray:none;stroke-opacity:1"
         d="m 171.6818,139.57578 c 0,0 1.70986,-2.29664 2.27834,-2.96039 0.82992,-0.96899 1.6924,-1.87098 2.33061,-2.43733 1.63847,-1.45402 3.12606,-2.13092 4.24677,-1.93242 0.69587,0.12325 1.38852,0.53351 1.74561,1.03393 0.20538,0.2878 0.29543,0.55114 0.29543,0.8639 0,0.30266 -0.0157,0.34959 -0.1172,0.34959 -0.16718,0 -0.74159,0.1366 -1.1654,0.27715 -1.41252,0.46842 -3.05268,1.61189 -4.42299,3.08357 l -0.33639,0.36129 -0.74061,0.22939 c -0.97095,0.30074 -2.20729,0.6531 -3.20199,0.91259 -0.44072,0.11497 -0.82626,0.21605 -0.85674,0.22463 -0.0305,0.009 -0.36429,0.11288 -0.36429,0.11288 z"
         id="path25-7-9-4" /><path
         style="fill:#000000;fill-opacity:1;stroke:#000000;stroke-width:0.108469;stroke-linecap:round;stroke-linejoin:round;stroke-dasharray:none;stroke-opacity:1"
         d="m 175.53349,141.01209 c 0.50789,-0.70141 1.14973,-1.52351 1.50625,-1.92924 0.18199,-0.20711 0.18773,-0.21057 0.57269,-0.34479 2.19144,-0.7641 3.68617,-1.49477 4.65236,-2.27425 0.41164,-0.33209 0.9802,-0.97659 1.05228,-1.19283 0.0144,-0.0433 0.49838,0.0648 0.71109,0.15887 0.56384,0.24936 0.89064,0.73966 0.85353,1.28057 -0.0827,1.20495 -1.687,2.44407 -4.26708,3.29569 -1.15547,0.3814 -2.66756,0.7355 -4.38722,1.02741 -0.36586,0.0621 -0.7774,0.14846 -0.81872,0.15768 -0.0705,0.0157 0.0107,-0.0215 0.12482,-0.17911 z"
         id="path26-6-8-9" /><text
         xml:space="preserve"
         style="font-style:normal;font-variant:normal;font-weight:normal;font-stretch:normal;font-size:24.0438px;font-family:Outfit;-inkscape-font-specification:'Outfit, Normal';font-variant-ligatures:normal;font-variant-caps:normal;font-variant-numeric:normal;font-variant-east-asian:normal;text-align:start;writing-mode:lr-tb;direction:ltr;text-anchor:start;fill:#000000;fill-opacity:1;stroke:#000000;stroke-width:0.163884;stroke-linecap:round;stroke-linejoin:round"
         x="181.44267"
         y="161.12228"
         id="text1-5-6-6"><tspan
           id="tspan1-4-5-3"
           style="fill:#000000;fill-opacity:1;stroke-width:0.163884"
           x="181.44267"
           y="161.12228">emba</tspan></text><path
         style="fill:#ffffff;fill-opacity:1;stroke:#000000;stroke-width:0.436;stroke-linecap:round;stroke-linejoin:round;stroke-dasharray:none"
         d="m 162.404,157.97579 c -0.96091,-0.44748 -1.78315,-0.847 -1.8272,-0.88784 -0.16592,-0.15382 8.69342,-14.27308 9.01497,-14.36728 0.0628,-0.0184 0.77946,-0.10093 1.59254,-0.18338 0.81307,-0.0824 1.65381,-0.17335 1.86829,-0.202 l 0.38998,-0.0521 -0.48537,0.75259 c -1.74932,2.71244 -4.28699,7.30848 -7.64964,13.85443 -0.5375,1.04635 -1.0176,1.90171 -1.06688,1.9008 -0.0493,-7.9e-4 -0.87578,-0.36776 -1.83669,-0.81522 z"
         id="path1-0-7" /><path
         style="fill:none;fill-opacity:1;stroke:#000000;stroke-width:2.206;stroke-linecap:round;stroke-linejoin:round;stroke-dasharray:none;stroke-opacity:1"
         d="m 127.60692,53.923068 c 3.7439,1.580678 7.48771,3.161319 10.46071,3.713681 2.97299,0.552361 5.17489,0.07639 7.37683,-0.399589"
         id="path22-6-9-8"
         transform="translate(32.969879,103.16488)" /><path
         style="fill:#ffffff;fill-opacity:1;stroke:#ffffff;stroke-width:1.206;stroke-linecap:round;stroke-linejoin:round;stroke-dasharray:none;stroke-opacity:1"
         d="m 179.44409,84.778516 c -0.61637,0.92522 -1.23274,1.850439 -1.82867,2.78557 -0.59592,0.935131 -1.17136,1.88013 -1.74682,2.825149"
         id="path2-8"
         transform="translate(-12.134585,49.255037)" /><path
         style="fill:#ffffff;fill-opacity:1;stroke:#ffffff;stroke-width:2.606;stroke-linecap:round;stroke-linejoin:round;stroke-dasharray:none;stroke-opacity:1"
         d="m 183.81259,83.894672 c -0.99553,1.135362 -1.99105,2.270706 -2.84255,3.398033 -0.85151,1.127326 -1.55894,2.246547 -2.26638,3.365784"
         id="path3-2"
         transform="translate(-8.0166243,53.072164)" /><path
         style="fill:#ffffff;fill-opacity:1;stroke:#000000;stroke-width:0.606;stroke-linecap:round;stroke-linejoin:round;stroke-dasharray:none;stroke-opacity:1"
         d="m 174.64905,91.212829 c 0.8975,-1.259145 1.79499,-2.51826 2.99028,-4.149914 1.19529,-1.631653 2.6883,-3.635711 4.18134,-5.639808"
         id="path4-9"
         transform="translate(-6.7337213,53.57899)" /><path
         style="fill:#ffffff;fill-opacity:1;stroke:#000000;stroke-width:0.906;stroke-linecap:round;stroke-linejoin:round;stroke-dasharray:none;stroke-opacity:1"
         d="m 176.52589,89.185525 c 0.74227,-1.271764 1.48453,-2.543501 2.40936,-3.694435 0.92483,-1.150935 2.03214,-2.180956 3.13948,-3.211004"
         id="path4-4-1"
         transform="translate(-4.1967503,55.220277)" /></g></g></svg>
